HIERARCHY
ROOT Hips
{
	OFFSET 0.000000 0.000000 0.000000 
	CHANNELS 6 Xposition Yposition Zposition Yrotation Zrotation Xrotation 
	JOINT Lumbar
	{
		OFFSET 0.000000 0.000000 0.000000 
		CHANNELS 3 Zrotation Xrotation Yrotation
		JOINT Neck
		{
			OFFSET 0.000000 0.445665 0.000000 
			CHANNELS 3 Zrotation Xrotation Yrotation
			End Site
			{
				OFFSET 0.000000 0.227535 0.000000 
			}
		}
		JOINT RightShoulder
		{
			OFFSET 0.019635 0.377685 0.194865 
			CHANNELS 3 Zrotation Xrotation Yrotation
			JOINT RightElbow
			{
				OFFSET 0.000000 -0.243375 0.000000 
				CHANNELS 2 Zrotation Yrotation
				JOINT RightWrist
				{
					OFFSET 0.000000 -0.264825 0.000000 
					CHANNELS 2 Zrotation Xrotation
					End Site
					{
						OFFSET 0.006600 -0.176220 0.000990 
					}
				}
			}
		}
		JOINT LeftShoulder
		{
			OFFSET 0.019635 0.377685 -0.194865 
			CHANNELS 3 Zrotation Xrotation Yrotation
			JOINT LeftElbow
			{
				OFFSET 0.000000 -0.243375 0.000000 
				CHANNELS 2 Zrotation Yrotation
				JOINT LeftWrist
				{
					OFFSET 0.000000 -0.264825 0.000000 
					CHANNELS 2 Zrotation Xrotation
					End Site
					{
						OFFSET 0.006600 -0.176220 -0.000990 
					}
				}
			}
		}
	}
	JOINT RightHip
	{
		OFFSET 0.052140 -0.069960 0.075570 
		CHANNELS 3 Zrotation Xrotation Yrotation
		JOINT RightKnee
		{
			OFFSET 0.000000 -0.402270 0.000000 
			CHANNELS 1 Zrotation
			JOINT RightAnkle
			{
				OFFSET 0.000000 -0.404085 0.000000 
				CHANNELS 3 Zrotation Xrotation Yrotation
				End Site
				{
					OFFSET 0.204105 -0.089430 0.008415 
				}
			}
		}
	}
	JOINT LeftHip
	{
		OFFSET 0.052140 -0.069960 -0.075570 
		CHANNELS 3 Zrotation Xrotation Yrotation
		JOINT LeftKnee
		{
			OFFSET 0.000000 -0.402270 0.000000 
			CHANNELS 1 Zrotation
			JOINT LeftAnkle
			{
				OFFSET 0.000000 -0.404085 0.000000 
				CHANNELS 3 Zrotation Xrotation Yrotation
				End Site
				{
					OFFSET 0.204105 -0.089430 -0.008415 
				}
			}
		}
	}
}
MOTION
Frames: 26
Frame Time: 0.02
-0.0207 0.94968 0.4882 172.73586 0 -7.90108 0.77593 5.61381 -5.06602 -49.45891 3.24466 7.11443 42.94884 -15.89128 52.84246 92.57552 49.28765 46.47913 -6.38412 39.05888 0.26251 -51.94896 72.30462 -27.92244 47.49225 10.60418 -0.78082 10.77122 -6.05716 -9.99595 4.06214 -4.37159 -8.17163 9.18831 19.66749 12.77137 -15.7165 3.93047 5.05337 12.97285
-0.01824 0.94932 0.48639 172.5375 0 -8.08262 0.88346 5.815 -4.93579 -49.69587 3.24539 7.29636 43.18256 -15.95573 52.84097 92.54565 49.39488 46.44 -6.36375 39.32032 0.20425 -51.9461 72.18881 -27.95909 47.38522 10.60596 -0.59623 11.0076 -6.29722 -10.0739 4.08518 -4.2155 -7.63724 9.27091 19.88294 12.51821 -15.82652 3.9842 5.06943 12.93508
-0.01632 0.94864 0.48469 172.37413 0 -8.38698 1.07737 6.08423 -4.81936 -50.1124 3.27193 7.58673 43.58823 -16.10395 52.83638 92.48551 49.5224 46.40419 -6.33873 39.77356 -0.00184 -51.93755 71.87624 -27.96218 47.47379 10.60316 -0.46525 11.33776 -6.66926 -10.12393 4.13436 -4.0184 -6.93749 9.3264 20.34073 12.36025 -15.64434 3.85024 5.03046 12.81549
-0.01416 0.94813 0.48295 172.19673 0 -8.62826 1.22974 6.31411 -4.69739 -50.43357 3.2871 7.82359 43.90276 -16.2077 52.83333 92.43877 49.63392 46.37158 -6.31714 40.12416 -0.1348 -51.93185 71.66165 -27.98033 47.47277 10.60252 -0.307 11.6215 -6.95028 -10.19206 4.1699 -3.85309 -6.35121 9.39809 20.67985 12.16798 -15.60919 3.80571 5.01754 12.73609
-0.01198 0.94755 0.4812 172.00992 0 -8.9001 1.3921 6.57872 -4.56958 -50.8113 3.30021 8.0794 44.27111 -16.33789 52.82975 92.3939 49.7742 46.32022 -6.28999 40.53859 -0.2914 -51.92521 71.41335 -28.00124 47.47144 10.6014 -0.15877 11.92106 -7.35008 -10.24169 4.21299 -3.63671 -5.61466 9.45762 21.05472 11.94943 -15.52404 3.74658 5.00109 12.6479
-0.00998 0.94702 0.47948 171.85196 0 -9.13765 1.55411 6.78805 -4.45805 -51.11427 3.32362 8.32039 44.56862 -16.43337 52.82653 92.33804 49.85962 46.30774 -6.27324 40.86631 -0.43435 -51.91911 71.18765 -28.00791 47.51793 10.60021 -0.00402 12.20908 -7.54806 -10.32077 4.24684 -3.51157 -5.13826 9.53427 21.41273 11.80347 -15.46919 3.67221 4.9786 12.5573
-0.0083 0.94674 0.4778 171.76092 0 -9.24844 1.69291 6.821 -4.39119 -51.16913 3.37315 8.50231 44.62825 -16.4094 52.82511 92.25611 49.78518 46.40853 -6.28737 40.9066 -0.50411 -51.91585 71.07192 -27.98051 47.65537 10.60043 0.19114 12.45427 -7.03605 -10.49743 4.24465 -3.69499 -5.53634 9.66663 21.66581 11.83904 -15.57623 3.60124 4.95269 12.47727
-0.00678 0.94653 0.47617 171.69875 0 -9.32082 1.82846 6.79727 -4.34032 -51.14254 3.4315 8.66397 44.61097 -16.34806 52.82415 92.16453 49.65552 46.54714 -6.31194 40.8536 -0.55497 -51.91331 70.98552 -27.93999 47.83362 10.6007 0.39276 12.68274 -6.33727 -10.70234 4.23284 -3.96366 -6.18202 9.81622 21.89343 11.94213 -15.72115 3.52102 4.92249 12.39739
-0.00522 0.94628 0.47454 171.62616 0 -9.41214 1.96622 6.80423 -4.28022 -51.15181 3.48337 8.82936 44.62896 -16.30613 52.82292 92.0795 49.55316 46.66377 -6.33111 40.844 -0.61443 -51.91048 70.88564 -27.90735 47.98912 10.60057 0.58521 12.911 -5.80536 -10.88774 4.22827 -4.16178 -6.63611 9.95617 22.13215 12.00965 -15.84307 3.44498 4.89432 12.31891
-0.00358 0.94604 0.4728 171.543 0 -9.50163 2.10412 6.79293 -4.22786 -51.17154 3.54671 9.02163 44.65098 -16.25757 52.82181 91.98481 49.44174 46.80016 -6.35295 40.83607 -0.67954 -51.90735 70.77936 -27.86626 48.1685 10.60167 0.80227 13.1748 -4.93908 -11.10075 4.21307 -4.48972 -7.4109 10.10297 22.38131 12.1007 -15.97974 3.36279 4.86404 12.23219
-0.00212 0.9458 0.47129 171.4887 0 -9.58404 2.23957 6.8051 -4.16421 -51.14864 3.58773 9.15172 44.64489 -16.21197 52.82062 91.9077 49.33642 46.9051 -6.3717 40.80098 -0.72575 -51.90502 70.69619 -27.83914 48.30609 10.60053 0.97011 13.36022 -4.71411 -11.26288 4.21665 -4.57187 -7.58787 10.23983 22.5995 12.15825 -16.09802 3.29334 4.83768 12.16281
-0.00114 0.94557 0.47042 171.50288 0 -9.65684 2.37065 6.89754 -4.05497 -51.01974 3.56657 9.11422 44.57215 -16.19092 52.81889 91.88732 49.2559 46.90736 -6.37988 40.7043 -0.73014 -51.90541 70.66828 -27.86221 48.31074 10.59099 1.00246 13.32561 -6.38322 -11.28142 4.28052 -3.92171 -5.97504 10.34571 22.73732 12.09947 -16.16078 3.2647 4.82474 12.14958
-0.00034 0.94535 0.46979 171.54558 0 -9.72306 2.49856 7.01489 -3.93553 -50.85132 3.52226 9.01449 44.47428 -16.17243 52.81712 91.88409 49.18427 46.87787 -6.38453 40.58411 -0.71445 -51.9065 70.66382 -27.89858 48.2725 10.57957 0.98503 13.21359 -8.68887 -11.24734 4.36239 -3.02761 -3.76762 10.44084 22.84371 12.00555 -16.20414 3.24949 4.81587 12.1528
0.00053 0.94513 0.46904 171.5779 0 -9.79141 2.62656 7.1195 -3.82784 -50.70554 3.48733 8.94323 44.39228 -16.14749 52.81551 91.86924 49.11225 46.86725 -6.39047 40.48013 -0.70329 -51.90685 70.65057 -27.92331 48.25772 10.57057 0.98922 13.14168 -10.65185 -11.23479 4.43183 -2.26685 -1.88454 10.54076 22.96412 11.93195 -16.25506 3.22688 4.8044 12.14325
0.00142 0.94489 0.4683 171.60085 0 -9.86238 2.76056 7.22833 -3.69145 -50.53751 3.45743 8.87043 44.28928 -16.14331 52.81331 91.86991 49.02333 46.83927 -6.39804 40.35046 -0.71051 -51.90895 70.6305 -27.97045 48.22716 10.55523 0.99747 13.04875 -12.83455 -11.23265 4.51869 -1.41402 0.21898 10.6423 23.08536 11.84225 -16.31316 3.20939 4.79591 12.15536
0.00224 0.94469 0.46761 171.64908 0 -9.92648 2.88087 7.33483 -3.61124 -50.40721 3.41156 8.78646 44.22459 -16.09735 52.81233 91.84281 48.97189 46.83933 -6.4013 40.26893 -0.67548 -51.90764 70.62965 -27.97513 48.21943 10.55229 0.98585 12.98103 -14.71223 -11.19671 4.57392 -0.69406 2.00716 10.73689 23.19712 11.77706 -16.35031 3.18445 4.78226 12.1271
0.0029 0.94455 0.46698 171.76551 0 -9.97597 2.96811 7.43049 -3.69692 -50.39304 3.32613 8.68547 44.27584 -15.93228 52.81471 91.73213 49.02672 46.92494 -6.393 40.33495 -0.52373 -51.89617 70.67796 -27.85163 48.27843 10.5872 0.92721 13.00529 -15.59999 -11.07372 4.53512 -0.39916 2.78476 10.82177 23.2952 11.78558 -16.3426 3.13691 4.75327 11.97639
0.00349 0.94445 0.46639 171.90534 0 -10.01845 3.04094 7.52286 -3.83792 -50.41815 3.22567 8.57574 44.36613 -15.72594 52.81832 91.59353 49.11828 47.03947 -6.38052 40.44914 -0.33117 -51.88138 70.74433 -27.68637 48.36269 10.63411 0.85097 13.05707 -16.15784 -10.91946 4.46435 -0.24633 3.2244 10.89871 23.38402 11.81995 -16.3128 3.08124 4.719 11.7858
0.00412 0.94433 0.46579 172.03067 0 -10.0625 3.1178 7.61596 -3.94797 -50.42415 3.13269 8.47097 44.43633 -15.54059 52.82139 91.46951 49.19015 47.14049 -6.37021 40.53577 -0.16059 -51.86849 70.80113 -27.54543 48.43993 10.67341 0.78573 13.09399 -16.8628 -10.78392 4.40974 -0.0289 3.81661 10.97469 23.47405 11.84405 -16.28753 3.02853 4.68722 11.61799
0.00473 0.94421 0.46517 172.17297 0 -10.11306 3.20525 7.71328 -4.08191 -50.43402 3.03583 8.35976 44.51557 -15.34547 52.82439 91.3379 49.27518 47.24253 -6.35863 40.64498 0.02529 -51.85391 70.86457 -27.38269 48.49787 10.72157 0.70652 13.13791 -17.60325 -10.62822 4.34882 0.19722 4.43476 11.06946 23.57569 11.86141 -16.28479 2.97939 4.65516 11.43103
0.00535 0.94411 0.4646 172.28558 0 -10.14853 3.26718 7.8005 -4.17973 -50.4457 2.94419 8.2608 44.58553 -15.1614 52.8278 91.2155 49.34111 47.34902 -6.34878 40.71953 0.1886 -51.84209 70.9181 -27.2549 48.6013 10.75437 0.65236 13.17507 -18.18131 -10.5069 4.29329 0.36788 4.90958 11.12348 23.65129 11.89853 -16.23019 2.92071 4.62243 11.27438
0.00602 0.94409 0.46419 172.30623 0 -10.14389 3.26263 7.86233 -4.1611 -50.45302 2.86701 8.19748 44.62116 -15.01337 52.83234 91.12315 49.34795 47.46685 -6.34432 40.68133 0.28064 -51.8383 70.94021 -27.23694 48.83515 10.73997 0.67627 13.18478 -18.40557 -10.49562 4.25964 0.42336 5.0809 11.06582 23.65792 11.9917 -16.03735 2.83767 4.58872 11.20984
0.00671 0.9441 0.46382 172.29678 0 -10.12438 3.23281 7.91367 -4.10491 -50.46097 2.79625 8.14725 44.64609 -14.87872 52.83718 91.04136 49.33384 47.58721 -6.34185 40.60763 0.34825 -51.83744 70.95155 -27.25498 49.11202 10.71005 0.72537 13.18745 -18.47274 -10.51885 4.2325 0.4264 5.11553 10.96763 23.63875 12.10282 -15.79325 2.74524 4.55457 11.17722
0.00739 0.9441 0.46343 172.30386 0 -10.11181 3.21429 7.9686 -4.06797 -50.46869 2.7252 8.09147 44.6755 -14.74094 52.84169 90.95608 49.32746 47.70253 -6.33876 40.55383 0.4263 -51.83551 70.96744 -27.25438 49.36226 10.68851 0.76022 13.19513 -18.59862 -10.52164 4.20296 0.44978 5.20266 10.88882 23.63106 12.20042 -15.57301 2.65701 4.5209 11.1309
0.00809 0.94409 0.46305 172.30005 0 -10.09817 3.19609 8.02844 -4.0235 -50.47755 2.64305 8.03334 44.70783 -14.58929 52.84707 90.86428 49.32964 47.83513 -6.33429 40.48606 0.50867 -51.83245 70.98537 -27.26181 49.64345 10.66184 0.80632 13.19628 -18.76397 -10.54343 4.17033 0.48198 5.31631 10.80584 23.62389 12.32047 -15.34961 2.56874 4.48593 11.08026
0.00874 0.9441 0.46267 172.31107 0 -10.08339 3.17132 8.07557 -3.98536 -50.48364 2.58509 7.98373 44.73106 -14.47024 52.8507 90.789 49.30888 47.93213 -6.33324 40.438 0.57559 -51.83239 70.99635 -27.26179 49.86979 10.64196 0.83509 13.20875 -18.81775 -10.53422 4.14561 0.48662 5.34997 10.72182 23.60984 12.39903 -15.12088 2.47849 4.45357 11.04615
